<svg xmlns="http://www.w3.org/2000/svg" version="1.1" xmlns:xlink="http://www.w3.org/1999/xlink" xmlns:svgjs="http://svgjs.dev/svgjs" width="1500" height="1500" viewBox="0 0 1500 1500"><rect width="1500" height="1500" fill="#000000"></rect><g transform="matrix(0.6666666666666666,0,0,0.6666666666666666,249.39393939393938,472.3220959515685)"><svg viewBox="0 0 396 220" data-background-color="#000000" preserveAspectRatio="xMidYMid meet" height="833" width="1500" xmlns="http://www.w3.org/2000/svg" xmlns:xlink="http://www.w3.org/1999/xlink"><g id="tight-bounds" transform="matrix(1,0,0,1,0.2400000000000091,0.004451783892449157)"><svg viewBox="0 0 395.52 219.9910964322151" height="219.9910964322151" width="395.52"><g><svg viewBox="0 0 395.52 219.9910964322151" height="219.9910964322151" width="395.52"><g transform="matrix(1,0,0,1,0,135.96332320018703)"><svg viewBox="0 0 395.52 84.02777323202805" height="84.02777323202805" width="395.52"><g id="textblocktransform"><svg viewBox="0 0 395.52 84.02777323202805" height="84.02777323202805" width="395.52" id="textblock"><g><svg viewBox="0 0 395.52 84.02777323202805" height="84.02777323202805" width="395.52"><g transform="matrix(1,0,0,1,0,0)"><svg width="395.52" viewBox="3 -35.01 167.07 35.5" height="84.02777323202805" data-palette-color="url(#74180542-4597-4aa6-9eef-401b697a5ca6)"></svg></g></svg></g></svg></g></svg></g><g transform="matrix(1,0,0,1,138.6487051070236,0)"><svg viewBox="0 0 118.22258978595276 116.12638260666277" height="116.12638260666277" width="118.22258978595276"><g><svg xmlns="http://www.w3.org/2000/svg" xmlns:xlink="http://www.w3.org/1999/xlink" version="1.1" x="8" y="0" viewBox="12.268000000000006 7.138 75.46292029316668 85.72699999999998" enable-background="new 0 0 100 100" xml:space="preserve" height="116.12638260666277" width="102.22258978595276" class="icon-icon-0" data-fill-palette-color="accent" id="icon-0"></svg></g></svg></g><g></g></svg></g><defs></defs><mask id="fe9344e4-4577-46b7-b20e-74cb37c1d979"><g id="SvgjsG1790"><svg viewBox="0 0 395.52 219.9910964322151" height="219.9910964322151" width="395.52"><g><svg viewBox="0 0 395.52 219.9910964322151" height="219.9910964322151" width="395.52"><g transform="matrix(1,0,0,1,0,135.96332320018703)"><svg viewBox="0 0 395.52 84.02777323202805" height="84.02777323202805" width="395.52"><g id="SvgjsG1789"><svg viewBox="0 0 395.52 84.02777323202805" height="84.02777323202805" width="395.52" id="SvgjsSvg1788"><g><svg viewBox="0 0 395.52 84.02777323202805" height="84.02777323202805" width="395.52"><g transform="matrix(1,0,0,1,0,0)"><svg width="395.52" viewBox="3 -35.01 167.07 35.5" height="84.02777323202805" data-palette-color="url(#74180542-4597-4aa6-9eef-401b697a5ca6)"><path d="M19.7-6.86L19.7-6.86Q19.7-5.35 19.13-4 18.55-2.66 17.55-1.66 16.55-0.66 15.21-0.09 13.87 0.49 12.35 0.49L12.35 0.49 10.35 0.49Q8.84 0.49 7.5-0.09 6.15-0.66 5.15-1.66 4.15-2.66 3.58-4 3-5.35 3-6.86L3-6.86 3-35.01 6.01-35.01 6.01-22.9Q7.03-24.12 8.47-24.8 9.91-25.49 11.6-25.49L11.6-25.49 12.35-25.49Q13.87-25.49 15.21-24.91 16.55-24.34 17.55-23.34 18.55-22.34 19.13-21 19.7-19.65 19.7-18.14L19.7-18.14 19.7-6.86ZM16.7-6.69L16.7-18.31Q16.7-19.21 16.36-20.01 16.02-20.8 15.43-21.39 14.84-21.97 14.05-22.31 13.26-22.66 12.35-22.66L12.35-22.66 10.35-22.66Q9.45-22.66 8.65-22.31 7.86-21.97 7.28-21.39 6.69-20.8 6.35-20.01 6.01-19.21 6.01-18.31L6.01-18.31 6.01-6.69Q6.01-5.79 6.35-4.99 6.69-4.2 7.28-3.61 7.86-3.03 8.65-2.69 9.45-2.34 10.35-2.34L10.35-2.34 12.35-2.34Q13.26-2.34 14.05-2.69 14.84-3.03 15.43-3.61 16.02-4.2 16.36-4.99 16.7-5.79 16.7-6.69L16.7-6.69ZM29.95-31.01L26.46-31.01 26.46-35.01 29.95-35.01 29.95-31.01ZM29.71 0L26.71 0 26.71-25 29.71-25 29.71 0ZM52.41 0L35.71 0 35.71-1.34 48.31-22.14 36.2-22.14 36.2-25 52.41-25 52.41-23.66 39.81-2.86 52.41-2.86 52.41 0ZM74.11 0L71.11 0 71.11-18.31Q71.11-19.21 70.77-20.01 70.43-20.8 69.84-21.39 69.26-21.97 68.46-22.31 67.67-22.66 66.76-22.66L66.76-22.66 64.76-22.66Q63.86-22.66 63.07-22.31 62.27-21.97 61.69-21.39 61.1-20.8 60.76-20.01 60.42-19.21 60.42-18.31L60.42-18.31 60.42 0 57.41 0 57.41-25 58.42-25 60.05-22.46Q61.08-23.85 62.63-24.67 64.18-25.49 66.01-25.49L66.01-25.49 66.76-25.49Q68.28-25.49 69.62-24.91 70.96-24.34 71.97-23.34 72.97-22.34 73.54-21 74.11-19.65 74.11-18.14L74.11-18.14 74.11 0ZM96.82-6.86L96.82-6.86Q96.82-5.35 96.24-4 95.67-2.66 94.67-1.66 93.67-0.66 92.32-0.09 90.98 0.49 89.47 0.49L89.47 0.49 87.47 0.49Q85.95 0.49 84.61-0.09 83.27-0.66 82.27-1.66 81.26-2.66 80.69-4 80.12-5.35 80.12-6.86L80.12-6.86 80.12-18.14Q80.12-19.65 80.69-21 81.26-22.34 82.27-23.34 83.27-24.34 84.61-24.91 85.95-25.49 87.47-25.49L87.47-25.49 89.47-25.49Q90.98-25.49 92.32-24.91 93.67-24.34 94.67-23.34 95.67-22.34 96.24-21 96.82-19.65 96.82-18.14L96.82-18.14 96.82-12.26 83.12-12.26 83.12-6.69Q83.12-5.79 83.46-4.99 83.8-4.2 84.39-3.61 84.98-3.03 85.77-2.69 86.56-2.34 87.47-2.34L87.47-2.34 89.47-2.34Q90.37-2.34 91.16-2.69 91.96-3.03 92.54-3.61 93.13-4.2 93.47-4.99 93.81-5.79 93.81-6.69L93.81-6.69 93.81-8.35 96.82-7.86 96.82-6.86ZM93.81-14.6L93.81-18.31Q93.81-19.21 93.47-20.01 93.13-20.8 92.54-21.39 91.96-21.97 91.16-22.31 90.37-22.66 89.47-22.66L89.47-22.66 87.47-22.66Q86.56-22.66 85.77-22.31 84.98-21.97 84.39-21.39 83.8-20.8 83.46-20.01 83.12-19.21 83.12-18.31L83.12-18.31 83.12-14.6 93.81-14.6ZM120.01-6.35L120.01-6.35Q120.01-4.83 119.4-3.58 118.79-2.32 117.74-1.42 116.69-0.51 115.31-0.01 113.93 0.49 112.41 0.49L112.41 0.49 110.41 0.49Q108.9 0.49 107.52-0.09 106.14-0.66 105.1-1.66 104.06-2.66 103.44-4 102.82-5.35 102.82-6.86L102.82-6.86 102.82-7.86 105.82-8.35 105.82-6.69Q105.82-5.79 106.2-4.99 106.58-4.2 107.21-3.61 107.85-3.03 108.68-2.69 109.51-2.34 110.41-2.34L110.41-2.34 112.41-2.34Q113.32-2.34 114.15-2.61 114.98-2.88 115.62-3.38 116.27-3.88 116.65-4.59 117.03-5.3 117.03-6.2L117.03-6.2Q117.03-7.54 116.44-8.4 115.86-9.25 114.89-9.83 113.93-10.4 112.7-10.78 111.46-11.16 110.17-11.54 108.87-11.91 107.64-12.4 106.41-12.89 105.44-13.68 104.48-14.48 103.89-15.67 103.31-16.87 103.31-18.65L103.31-18.65Q103.31-20.17 103.89-21.42 104.48-22.68 105.48-23.58 106.48-24.49 107.81-24.99 109.14-25.49 110.66-25.49L110.66-25.49 112.41-25.49Q113.93-25.49 115.27-24.91 116.61-24.34 117.61-23.34 118.62-22.34 119.19-21 119.76-19.65 119.76-18.14L119.76-18.14 119.76-18.04 116.76-17.55 116.76-18.31Q116.76-19.21 116.42-20.01 116.08-20.8 115.49-21.39 114.9-21.97 114.11-22.31 113.32-22.66 112.41-22.66L112.41-22.66 110.66-22.66Q109.75-22.66 108.96-22.39 108.17-22.12 107.58-21.62 106.99-21.12 106.65-20.41 106.31-19.7 106.31-18.8L106.31-18.8Q106.31-17.5 106.9-16.69 107.48-15.87 108.45-15.31 109.41-14.75 110.64-14.37 111.88-13.99 113.16-13.59 114.44-13.18 115.67-12.67 116.91-12.16 117.87-11.35 118.84-10.55 119.42-9.34 120.01-8.13 120.01-6.35ZM137.61 0L134.87 0Q133.51 0 132.3-0.51 131.09-1.03 130.2-1.93 129.31-2.83 128.78-4.03 128.26-5.22 128.26-6.59L128.26-6.59 128.26-22.14 123.76-22.14 123.76-25 128.26-25 128.26-31.01 131.26-31.49 131.26-25 137.61-25 137.61-22.14 131.26-22.14 131.26-6.45Q131.26-5.69 131.54-5.04 131.82-4.39 132.31-3.91 132.8-3.42 133.46-3.14 134.12-2.86 134.87-2.86L134.87-2.86 137.61-2.86 137.61 0ZM159.82 0L158.82 0 157.16-2.49Q156.13-1.15 154.6-0.33 153.06 0.49 151.23 0.49L151.23 0.49 150.47 0.49Q148.96 0.49 147.61-0.09 146.27-0.66 145.27-1.66 144.27-2.66 143.7-4 143.12-5.35 143.12-6.86L143.12-6.86 143.12-7.1Q143.12-8.62 143.7-9.96 144.27-11.3 145.27-12.3 146.27-13.31 147.61-13.88 148.96-14.45 150.47-14.45L150.47-14.45 156.82-14.45 156.82-18.31Q156.82-19.21 156.48-20.01 156.13-20.8 155.55-21.39 154.96-21.97 154.17-22.31 153.38-22.66 152.47-22.66L152.47-22.66 150.71-22.66Q149.81-22.66 149.02-22.31 148.22-21.97 147.64-21.39 147.05-20.8 146.71-20.01 146.37-19.21 146.37-18.31L146.37-18.31 146.37-17.41 143.37-17.9 143.37-18.14Q143.37-19.65 143.94-21 144.51-22.34 145.51-23.34 146.52-24.34 147.86-24.91 149.2-25.49 150.71-25.49L150.71-25.49 152.47-25.49Q153.99-25.49 155.33-24.91 156.67-24.34 157.67-23.34 158.67-22.34 159.25-21 159.82-19.65 159.82-18.14L159.82-18.14 159.82 0ZM156.82-6.69L156.82-12.11 150.47-12.11Q149.57-12.11 148.77-11.77 147.98-11.43 147.39-10.83 146.81-10.23 146.47-9.44 146.13-8.64 146.13-7.74L146.13-7.74 146.13-6.69Q146.13-5.79 146.47-4.99 146.81-4.2 147.39-3.61 147.98-3.03 148.77-2.69 149.57-2.34 150.47-2.34L150.47-2.34 152.47-2.34Q153.38-2.34 154.17-2.69 154.96-3.03 155.55-3.61 156.13-4.2 156.48-4.99 156.82-5.79 156.82-6.69L156.82-6.69ZM170.07-31.01L166.58-31.01 166.58-35.01 170.07-35.01 170.07-31.01ZM169.83 0L166.83 0 166.83-25 169.83-25 169.83 0Z" opacity="1" transform="matrix(1,0,0,1,0,0)" fill="white" class="wordmark-text-0" id="SvgjsPath1787"></path></svg></g></svg></g></svg></g></svg></g><g transform="matrix(1,0,0,1,138.6487051070236,0)"><svg viewBox="0 0 118.22258978595276 116.12638260666277" height="116.12638260666277" width="118.22258978595276"><g><svg xmlns="http://www.w3.org/2000/svg" xmlns:xlink="http://www.w3.org/1999/xlink" version="1.1" x="8" y="0" viewBox="12.268000000000006 7.138 75.46292029316668 85.72699999999998" enable-background="new 0 0 100 100" xml:space="preserve" height="116.12638260666277" width="102.22258978595276" class="icon-icon-0" data-fill-palette-color="accent" id="SvgjsSvg1786"><path fill-rule="evenodd" clip-rule="evenodd" d="M62.88 7.138c0 0.974 0.032 1.752 0.032 2.726-1.062 1.358-3.549 1.696-4.94 2.731-0.99 0.737-1.242 1.708-2.062 2.57-1.45 1.524-2.439 1.621-3.026 0.868 0.049 3.981 7.481 5.144 10.611 7.928 3.866 3.438 2.938 9.481 5.461 10.158 2.39 0.641 7.309-7.152 7.297 0.367-0.758 0.703-1.223 1.187-1.98 1.891-0.329-2.627-1.121 0.426-3.246 1.948 1.941-0.757 3.297-1.26 5.238-2.017 0.997-0.389 1.749-0.378 2.58 0.305 2.945 2.422 5.648 4.779 8.58 7.195 0.347 0.286 0.319 0.674 0.29 1.126l-0.266 4.128c-0.127 1.964-2.263 2.365-3.436 2.41 0.054-0.866 0.108-1.732 0.162-2.597 0.484 0 0.967 0 1.451 0 0.432 0 0.337-0.042 0.35-0.467 0.031-0.954 0.063-1.908 0.094-2.862 0.004-0.136 0.079-0.576-0.023-0.665-4.842-4.197-5.589-4.07-8.169-5.553-0.408-0.235-0.779 0.245-0.802 0.361-0.135 0.683-0.057 1.454-0.11 2.153-0.132 1.71 0.005 3.688-0.243 5.308-0.309 2.018-1.216 3.116-3.988 3.185l0.24-2.435 1.83 0.02c0.07 0.001 0.126-0.048 0.177-0.077 0.272-0.153 0.215-0.389 0.211-0.654l-0.108-6.268c-0.999 1.32-6.534 8.574-8.602 8.251-0.859-0.134-1.669-2.141-2.273-3.382 0.033 0.461 0.066 0.923 0.099 1.385 0.052 0.736 0.013 1.14-0.542 1.71-5.66 5.813-8.094 5.956-10.594 6.97-0.351 2.687-0.28 5.029 0.401 6.86 0.594 1.597 2.103 2.586 3.298 3.512 0.41 0.318 0.486 1.069 0.458 1.219-0.052 0.28-0.244 0.306-0.558 0.355-1.232 0.191-4.136-1.161-6.015-2.17-0.879-0.473-1.569-0.868-1.402-2.317 0.065-0.567 0.197-0.969 0.232-1.408 0.257-3.22-0.325-3.388-0.796-4.752-1.249 0.327-2.176 0.489-2.743 0.524-0.433-0.812-0.792-1.66-1.152-2.471 0.712 8.047-2.343 9.179-6.893 11.93-6.335 3.83-8.056 4.652-7.708 14.742 0.136 3.949 0.775 7.893-2.929 10.986-1.014-1.39-1.006-2.938-0.445-4.411 0.047-0.125 0.04-0.3 0.154-0.372 1.174-0.743 1.952-1.924 1.993-3.439 0.04-1.476-1.767-2.741-1.423-4.953 0.629-4.055 2.612-4.373 0.309-9.09 10.175-4.943 1.595-10.324 2.082-15.194-2.016 2.744-3.48 3.089-5.72 1.803-2.415-1.386-3.013 0.66-2.826 2.235 0.144 1.208-0.654 2-1.752 2.521-1.743 0.823-3.214-1.473-4.363-2.334 1.926-0.421 3.004 0.749 5.868-3.5 1.392-2.065 2.732-3.538 5.182-1.999 2.487 1.563 3.02-0.53 4.39-4.538 0.795-2.326 3.41-4.349 5.889-4.541 4.117-0.319 4.41-0.68 6.406-1.852-2.457-2.705-3.648-5.74-3.571-8.445-0.93-0.063-3.29-0.325-3.667 0.761-0.751 2.165-2.767 6.014-5.972 7.391-0.955 0.411 0.048 2.514-1.134 2.587-0.59 0.037-0.617-0.625-0.956-0.383-0.778 0.556-1.126 2.008-2.115 1.75-1.978-0.517-0.227-4.87-0.902-4.919-1.275-0.093-3.096 3.749-4.052 3.438-1.454-0.472-1.155-1.724-1.866-2.793-0.712-1.069-1.675-1.749-1.033-3.092 0.122-0.254 0.434-0.31 0.678-0.549 0.407-0.399 0.886-0.923 1.889-0.884 2.936 0.114 2.486-1.851 3.155-2.385-6.927 2.391-8.231 0.448-8.66-0.408-0.283-0.566 0.787-3.094 1.982-4.492 0.701-0.82 1.492-0.741 2.524 0.294 1.457 1.461 4.347-0.296 5.683-3.761-0.406-0.318-1.718 0.141-1.963-0.347l-0.341-0.68 0.59-0.16-0.151-0.653c0.534-0.05 0.56-0.096 0.952 0.259 0.073 0.066 0.21 0.311 0.291 0.367 0.241 0.166 0.444 0.066 0.569-0.104-0.936-0.866-1.036-1.347-0.994-2.212-0.779-0.191-1.588 0.806-2.103 1.281 0.016-0.319 0.097-0.842 0.114-1.161-0.188-0.101-0.319-0.096-0.581-0.139 0.213-0.416 0.673-0.957 1.094-1.15 0.413-0.19 1.018-0.248 1.443-0.182 0.148-0.187 0.215-0.148 0.281-0.438 0.917-4.008 3.524-4.614 6.607-3.792-0.12-1.777-2.835-3.17-5.127-3.539-2.435 2.218-4.901 4.246-7.336 6.464 0.274 0.541 0.468 1.082 0.487 1.623 0.379 0.216 0.758 0.433 1.136 0.649-0.433 0.108-0.866 0.216-1.299 0.325-0.118 1.275-0.819 1.851-1.786 2.11 0 0.433 0 0.866 0 1.299-0.433-0.487-0.834-0.879-1.267-1.366-0.572 0.032-0.868-0.127-1.27-0.254l-1.384 0.515 0.604-1.369c-0.328-0.675-0.6-1.565-0.579-2.234-0.27-0.325-0.541-0.649-0.812-0.974 0.487 0 0.974 0 1.461 0 0.247-0.457 0.636-0.771 1.136-0.974 0.054-0.487 0.108-0.974 0.162-1.461 0.325 0.379 0.649 0.757 0.974 1.136 0.595-0.094 1.191-0.083 1.786 0.162 2.002-2.272 4.004-4.545 6.006-6.817-1.08-0.816-0.359-1.76 0.508-2.271 1.157-0.684 1.969-1.363 2.436-1.544 0.87-0.337 2.061-0.677 1.925 1.705 1.477 0.913 2.931 2.082 4.482 2.823 2.249 1.075 3.247 2.562 3.539 5.551 1.483 0.774 2.909 1.528 4.64 2.177 0.364-0.88 0.758-1.7 1.037-2.664-0.413-0.405-0.697-0.909-0.43-1.261 0.644-0.852 1.855-1.576 2.802-3.379-0.46-0.382-0.616-0.879-0.287-1.231 0.715-0.763 2.11-1.999 3.047-2.989-0.433-0.595-0.802-1.095-1.235-1.69 1.868 0.385 2.631 0.558 4.644-0.431C53.51 7.001 53.38 9.059 62.88 7.138L62.88 7.138zM43.553 64.652c0.08 2.738-1.894 5.61-4.941 5.899-2.657 0.252-4.805 1.766-6.402 3.326 2.103-5.968 4.547-3.874 8.358-5.879C41.781 67.36 42.968 66.132 43.553 64.652L43.553 64.652zM27.768 74.493c0.553 6.982-3.614 4.401-3.89 10.717-0.064 1.474-1.615 1.858-2.944 1.925 0-1.003 0-2.005 0-3.007 0.615 0 1.23 0 1.845 0 0.826-0.614 0.192-2.353 0.154-3.464-0.042-1.24 0.297-2.014 1.737-2.615C25.823 77.568 27.007 77.288 27.768 74.493L27.768 74.493zM24.83 59.596c-0.59 0.691-1.62 2.907-3.21 2.581-2.445-0.502-3.679 0.374-3.059 2.812 0.918 3.606-1.935 4.272-2.949 4.717-1.468 0.644-1.659 3.632 1.838 2.191-0.882-2.556 1.942-2.245 3.001-3.068 1.142-0.888 0.692-3.07 0.259-4.181-0.896-2.3 4.543-0.841 5.369-2.397C26.549 61.362 25.873 60.75 24.83 59.596L24.83 59.596zM15.673 64.447c-0.507 0.538-0.99 1.076-1.315 1.614-0.051 0.085-0.467 0.222-0.188 0.231-2.187 0.501-2.209-1.162 0.547-2.938C15.035 63.719 15.354 64.083 15.673 64.447L15.673 64.447z" fill="black"></path></svg></g></svg></g><g><rect width="138.6487051070236" height="7.577711306726266" y="107.5486712999365" x="256.8712948929764" fill="black"></rect><rect width="138.6487051070236" height="7.577711306726266" y="107.5486712999365" x="0" fill="black"></rect><rect width="138.6487051070236" height="7.577711306726266" y="92.39324868648397" x="256.8712948929764" fill="black"></rect><rect width="138.6487051070236" height="7.577711306726266" y="92.39324868648397" x="0" fill="black"></rect></g></svg></g><defs><mask></mask></defs></svg><rect width="395.52" height="219.9910964322151" fill="black" stroke="none" visibility="hidden"></rect></g></mask><linearGradient x1="0" x2="1" y1="0.578" y2="0.595" id="74180542-4597-4aa6-9eef-401b697a5ca6"><stop stop-color="#6ee2f5" offset="0"></stop><stop stop-color="#6454f0" offset="1"></stop></linearGradient><rect width="395.52" height="219.9910964322151" fill="#ffffff" mask="url(#fe9344e4-4577-46b7-b20e-74cb37c1d979)" data-fill-palette-color="primary"></rect><mask id="b4e7ecf7-3cb6-452b-9910-a986c7e9be36"><g id="SvgjsG1809"><svg viewBox="0 0 395.52 219.9910964322151" height="219.9910964322151" width="395.52"><g><svg viewBox="0 0 395.52 219.9910964322151" height="219.9910964322151" width="395.52"><g transform="matrix(1,0,0,1,0,135.96332320018703)"><svg viewBox="0 0 395.52 84.02777323202805" height="84.02777323202805" width="395.52"><g id="SvgjsG1808"><svg viewBox="0 0 395.52 84.02777323202805" height="84.02777323202805" width="395.52" id="SvgjsSvg1807"><g><svg viewBox="0 0 395.52 84.02777323202805" height="84.02777323202805" width="395.52"><g transform="matrix(1,0,0,1,0,0)"><svg width="395.52" viewBox="3 -35.01 167.07 35.5" height="84.02777323202805" data-palette-color="url(#74180542-4597-4aa6-9eef-401b697a5ca6)"></svg></g></svg></g></svg></g></svg></g><g transform="matrix(1,0,0,1,138.6487051070236,0)"><svg viewBox="0 0 118.22258978595276 116.12638260666277" height="116.12638260666277" width="118.22258978595276"><g><svg xmlns="http://www.w3.org/2000/svg" xmlns:xlink="http://www.w3.org/1999/xlink" version="1.1" x="8" y="0" viewBox="12.268000000000006 7.138 75.46292029316668 85.72699999999998" enable-background="new 0 0 100 100" xml:space="preserve" height="116.12638260666277" width="102.22258978595276" class="icon-icon-0" data-fill-palette-color="accent" id="SvgjsSvg1806"><path fill-rule="evenodd" clip-rule="evenodd" d="M62.88 7.138c0 0.974 0.032 1.752 0.032 2.726-1.062 1.358-3.549 1.696-4.94 2.731-0.99 0.737-1.242 1.708-2.062 2.57-1.45 1.524-2.439 1.621-3.026 0.868 0.049 3.981 7.481 5.144 10.611 7.928 3.866 3.438 2.938 9.481 5.461 10.158 2.39 0.641 7.309-7.152 7.297 0.367-0.758 0.703-1.223 1.187-1.98 1.891-0.329-2.627-1.121 0.426-3.246 1.948 1.941-0.757 3.297-1.26 5.238-2.017 0.997-0.389 1.749-0.378 2.58 0.305 2.945 2.422 5.648 4.779 8.58 7.195 0.347 0.286 0.319 0.674 0.29 1.126l-0.266 4.128c-0.127 1.964-2.263 2.365-3.436 2.41 0.054-0.866 0.108-1.732 0.162-2.597 0.484 0 0.967 0 1.451 0 0.432 0 0.337-0.042 0.35-0.467 0.031-0.954 0.063-1.908 0.094-2.862 0.004-0.136 0.079-0.576-0.023-0.665-4.842-4.197-5.589-4.07-8.169-5.553-0.408-0.235-0.779 0.245-0.802 0.361-0.135 0.683-0.057 1.454-0.11 2.153-0.132 1.71 0.005 3.688-0.243 5.308-0.309 2.018-1.216 3.116-3.988 3.185l0.24-2.435 1.83 0.02c0.07 0.001 0.126-0.048 0.177-0.077 0.272-0.153 0.215-0.389 0.211-0.654l-0.108-6.268c-0.999 1.32-6.534 8.574-8.602 8.251-0.859-0.134-1.669-2.141-2.273-3.382 0.033 0.461 0.066 0.923 0.099 1.385 0.052 0.736 0.013 1.14-0.542 1.71-5.66 5.813-8.094 5.956-10.594 6.97-0.351 2.687-0.28 5.029 0.401 6.86 0.594 1.597 2.103 2.586 3.298 3.512 0.41 0.318 0.486 1.069 0.458 1.219-0.052 0.28-0.244 0.306-0.558 0.355-1.232 0.191-4.136-1.161-6.015-2.17-0.879-0.473-1.569-0.868-1.402-2.317 0.065-0.567 0.197-0.969 0.232-1.408 0.257-3.22-0.325-3.388-0.796-4.752-1.249 0.327-2.176 0.489-2.743 0.524-0.433-0.812-0.792-1.66-1.152-2.471 0.712 8.047-2.343 9.179-6.893 11.93-6.335 3.83-8.056 4.652-7.708 14.742 0.136 3.949 0.775 7.893-2.929 10.986-1.014-1.39-1.006-2.938-0.445-4.411 0.047-0.125 0.04-0.3 0.154-0.372 1.174-0.743 1.952-1.924 1.993-3.439 0.04-1.476-1.767-2.741-1.423-4.953 0.629-4.055 2.612-4.373 0.309-9.09 10.175-4.943 1.595-10.324 2.082-15.194-2.016 2.744-3.48 3.089-5.72 1.803-2.415-1.386-3.013 0.66-2.826 2.235 0.144 1.208-0.654 2-1.752 2.521-1.743 0.823-3.214-1.473-4.363-2.334 1.926-0.421 3.004 0.749 5.868-3.5 1.392-2.065 2.732-3.538 5.182-1.999 2.487 1.563 3.02-0.53 4.39-4.538 0.795-2.326 3.41-4.349 5.889-4.541 4.117-0.319 4.41-0.68 6.406-1.852-2.457-2.705-3.648-5.74-3.571-8.445-0.93-0.063-3.29-0.325-3.667 0.761-0.751 2.165-2.767 6.014-5.972 7.391-0.955 0.411 0.048 2.514-1.134 2.587-0.59 0.037-0.617-0.625-0.956-0.383-0.778 0.556-1.126 2.008-2.115 1.75-1.978-0.517-0.227-4.87-0.902-4.919-1.275-0.093-3.096 3.749-4.052 3.438-1.454-0.472-1.155-1.724-1.866-2.793-0.712-1.069-1.675-1.749-1.033-3.092 0.122-0.254 0.434-0.31 0.678-0.549 0.407-0.399 0.886-0.923 1.889-0.884 2.936 0.114 2.486-1.851 3.155-2.385-6.927 2.391-8.231 0.448-8.66-0.408-0.283-0.566 0.787-3.094 1.982-4.492 0.701-0.82 1.492-0.741 2.524 0.294 1.457 1.461 4.347-0.296 5.683-3.761-0.406-0.318-1.718 0.141-1.963-0.347l-0.341-0.68 0.59-0.16-0.151-0.653c0.534-0.05 0.56-0.096 0.952 0.259 0.073 0.066 0.21 0.311 0.291 0.367 0.241 0.166 0.444 0.066 0.569-0.104-0.936-0.866-1.036-1.347-0.994-2.212-0.779-0.191-1.588 0.806-2.103 1.281 0.016-0.319 0.097-0.842 0.114-1.161-0.188-0.101-0.319-0.096-0.581-0.139 0.213-0.416 0.673-0.957 1.094-1.15 0.413-0.19 1.018-0.248 1.443-0.182 0.148-0.187 0.215-0.148 0.281-0.438 0.917-4.008 3.524-4.614 6.607-3.792-0.12-1.777-2.835-3.17-5.127-3.539-2.435 2.218-4.901 4.246-7.336 6.464 0.274 0.541 0.468 1.082 0.487 1.623 0.379 0.216 0.758 0.433 1.136 0.649-0.433 0.108-0.866 0.216-1.299 0.325-0.118 1.275-0.819 1.851-1.786 2.11 0 0.433 0 0.866 0 1.299-0.433-0.487-0.834-0.879-1.267-1.366-0.572 0.032-0.868-0.127-1.27-0.254l-1.384 0.515 0.604-1.369c-0.328-0.675-0.6-1.565-0.579-2.234-0.27-0.325-0.541-0.649-0.812-0.974 0.487 0 0.974 0 1.461 0 0.247-0.457 0.636-0.771 1.136-0.974 0.054-0.487 0.108-0.974 0.162-1.461 0.325 0.379 0.649 0.757 0.974 1.136 0.595-0.094 1.191-0.083 1.786 0.162 2.002-2.272 4.004-4.545 6.006-6.817-1.08-0.816-0.359-1.76 0.508-2.271 1.157-0.684 1.969-1.363 2.436-1.544 0.87-0.337 2.061-0.677 1.925 1.705 1.477 0.913 2.931 2.082 4.482 2.823 2.249 1.075 3.247 2.562 3.539 5.551 1.483 0.774 2.909 1.528 4.64 2.177 0.364-0.88 0.758-1.7 1.037-2.664-0.413-0.405-0.697-0.909-0.43-1.261 0.644-0.852 1.855-1.576 2.802-3.379-0.46-0.382-0.616-0.879-0.287-1.231 0.715-0.763 2.11-1.999 3.047-2.989-0.433-0.595-0.802-1.095-1.235-1.69 1.868 0.385 2.631 0.558 4.644-0.431C53.51 7.001 53.38 9.059 62.88 7.138L62.88 7.138zM43.553 64.652c0.08 2.738-1.894 5.61-4.941 5.899-2.657 0.252-4.805 1.766-6.402 3.326 2.103-5.968 4.547-3.874 8.358-5.879C41.781 67.36 42.968 66.132 43.553 64.652L43.553 64.652zM27.768 74.493c0.553 6.982-3.614 4.401-3.89 10.717-0.064 1.474-1.615 1.858-2.944 1.925 0-1.003 0-2.005 0-3.007 0.615 0 1.23 0 1.845 0 0.826-0.614 0.192-2.353 0.154-3.464-0.042-1.24 0.297-2.014 1.737-2.615C25.823 77.568 27.007 77.288 27.768 74.493L27.768 74.493zM24.83 59.596c-0.59 0.691-1.62 2.907-3.21 2.581-2.445-0.502-3.679 0.374-3.059 2.812 0.918 3.606-1.935 4.272-2.949 4.717-1.468 0.644-1.659 3.632 1.838 2.191-0.882-2.556 1.942-2.245 3.001-3.068 1.142-0.888 0.692-3.07 0.259-4.181-0.896-2.3 4.543-0.841 5.369-2.397C26.549 61.362 25.873 60.75 24.83 59.596L24.83 59.596zM15.673 64.447c-0.507 0.538-0.99 1.076-1.315 1.614-0.051 0.085-0.467 0.222-0.188 0.231-2.187 0.501-2.209-1.162 0.547-2.938C15.035 63.719 15.354 64.083 15.673 64.447L15.673 64.447z" fill="white"></path></svg></g></svg></g><g><rect width="138.6487051070236" height="7.577711306726266" y="107.5486712999365" x="256.8712948929764" fill="white"></rect><rect width="138.6487051070236" height="7.577711306726266" y="107.5486712999365" x="0" fill="white"></rect><rect width="138.6487051070236" height="7.577711306726266" y="92.39324868648397" x="256.8712948929764" fill="white"></rect><rect width="138.6487051070236" height="7.577711306726266" y="92.39324868648397" x="0" fill="white"></rect></g></svg></g><defs><mask></mask></defs><mask><g id="SvgjsG1805"><svg viewBox="0 0 395.52 219.9910964322151" height="219.9910964322151" width="395.52"><g><svg viewBox="0 0 395.52 219.9910964322151" height="219.9910964322151" width="395.52"><g transform="matrix(1,0,0,1,0,135.96332320018703)"><svg viewBox="0 0 395.52 84.02777323202805" height="84.02777323202805" width="395.52"><g id="SvgjsG1804"><svg viewBox="0 0 395.52 84.02777323202805" height="84.02777323202805" width="395.52" id="SvgjsSvg1803"><g><svg viewBox="0 0 395.52 84.02777323202805" height="84.02777323202805" width="395.52"><g transform="matrix(1,0,0,1,0,0)"><svg width="395.52" viewBox="3 -35.01 167.07 35.5" height="84.02777323202805" data-palette-color="url(#74180542-4597-4aa6-9eef-401b697a5ca6)"><path d="M19.7-6.86L19.7-6.86Q19.7-5.35 19.13-4 18.55-2.66 17.55-1.66 16.55-0.66 15.21-0.09 13.87 0.49 12.35 0.49L12.35 0.49 10.35 0.49Q8.84 0.49 7.5-0.09 6.15-0.66 5.15-1.66 4.15-2.66 3.58-4 3-5.35 3-6.86L3-6.86 3-35.01 6.01-35.01 6.01-22.9Q7.03-24.12 8.47-24.8 9.91-25.49 11.6-25.49L11.6-25.49 12.35-25.49Q13.87-25.49 15.21-24.91 16.55-24.34 17.55-23.34 18.55-22.34 19.13-21 19.7-19.65 19.7-18.14L19.7-18.14 19.7-6.86ZM16.7-6.69L16.7-18.31Q16.7-19.21 16.36-20.01 16.02-20.8 15.43-21.39 14.84-21.97 14.05-22.31 13.26-22.66 12.35-22.66L12.35-22.66 10.35-22.66Q9.45-22.66 8.65-22.31 7.86-21.97 7.28-21.39 6.69-20.8 6.35-20.01 6.01-19.21 6.01-18.31L6.01-18.31 6.01-6.69Q6.01-5.79 6.35-4.99 6.69-4.2 7.28-3.61 7.86-3.03 8.65-2.69 9.45-2.34 10.35-2.34L10.35-2.34 12.35-2.34Q13.26-2.34 14.05-2.69 14.84-3.03 15.43-3.61 16.02-4.2 16.36-4.99 16.7-5.79 16.7-6.69L16.7-6.69ZM29.95-31.01L26.46-31.01 26.46-35.01 29.95-35.01 29.95-31.01ZM29.71 0L26.71 0 26.71-25 29.71-25 29.71 0ZM52.41 0L35.71 0 35.71-1.34 48.31-22.14 36.2-22.14 36.2-25 52.41-25 52.41-23.66 39.81-2.86 52.41-2.86 52.41 0ZM74.11 0L71.11 0 71.11-18.31Q71.11-19.21 70.77-20.01 70.43-20.8 69.84-21.39 69.26-21.97 68.46-22.31 67.67-22.66 66.76-22.66L66.76-22.66 64.76-22.66Q63.86-22.66 63.07-22.31 62.27-21.97 61.69-21.39 61.1-20.8 60.76-20.01 60.42-19.21 60.42-18.31L60.42-18.31 60.42 0 57.41 0 57.41-25 58.42-25 60.05-22.46Q61.08-23.85 62.63-24.67 64.18-25.49 66.01-25.49L66.01-25.49 66.76-25.49Q68.28-25.49 69.62-24.91 70.96-24.34 71.97-23.34 72.97-22.34 73.54-21 74.11-19.65 74.11-18.14L74.11-18.14 74.11 0ZM96.82-6.86L96.82-6.86Q96.82-5.35 96.24-4 95.67-2.66 94.67-1.66 93.67-0.66 92.32-0.09 90.98 0.49 89.47 0.49L89.47 0.49 87.47 0.49Q85.95 0.49 84.61-0.09 83.27-0.66 82.27-1.66 81.26-2.66 80.69-4 80.12-5.35 80.12-6.86L80.12-6.86 80.12-18.14Q80.12-19.65 80.69-21 81.26-22.34 82.27-23.34 83.27-24.34 84.61-24.91 85.95-25.49 87.47-25.49L87.47-25.49 89.47-25.49Q90.98-25.49 92.32-24.91 93.67-24.34 94.67-23.34 95.67-22.34 96.24-21 96.82-19.65 96.82-18.14L96.82-18.14 96.82-12.26 83.12-12.26 83.12-6.69Q83.12-5.79 83.46-4.99 83.8-4.2 84.39-3.61 84.98-3.03 85.77-2.69 86.56-2.34 87.47-2.34L87.47-2.34 89.47-2.34Q90.37-2.34 91.16-2.69 91.96-3.03 92.54-3.61 93.13-4.2 93.47-4.99 93.81-5.79 93.81-6.69L93.81-6.69 93.81-8.35 96.82-7.86 96.82-6.86ZM93.81-14.6L93.81-18.31Q93.81-19.21 93.47-20.01 93.13-20.8 92.54-21.39 91.96-21.97 91.16-22.31 90.37-22.66 89.47-22.66L89.47-22.66 87.47-22.66Q86.56-22.66 85.77-22.31 84.98-21.97 84.39-21.39 83.8-20.8 83.46-20.01 83.12-19.21 83.12-18.31L83.12-18.31 83.12-14.6 93.81-14.6ZM120.01-6.35L120.01-6.35Q120.01-4.83 119.4-3.58 118.79-2.32 117.74-1.42 116.69-0.51 115.31-0.01 113.93 0.49 112.41 0.49L112.41 0.49 110.41 0.49Q108.9 0.49 107.52-0.09 106.14-0.66 105.1-1.66 104.06-2.66 103.44-4 102.82-5.35 102.82-6.86L102.82-6.86 102.82-7.86 105.82-8.35 105.82-6.69Q105.82-5.79 106.2-4.99 106.58-4.2 107.21-3.61 107.85-3.03 108.68-2.69 109.51-2.34 110.41-2.34L110.41-2.34 112.41-2.34Q113.32-2.34 114.15-2.61 114.98-2.88 115.62-3.38 116.27-3.88 116.65-4.59 117.03-5.3 117.03-6.2L117.03-6.2Q117.03-7.54 116.44-8.4 115.86-9.25 114.89-9.83 113.93-10.4 112.7-10.78 111.46-11.16 110.17-11.54 108.87-11.91 107.64-12.4 106.41-12.89 105.44-13.68 104.48-14.48 103.89-15.67 103.31-16.87 103.31-18.65L103.31-18.65Q103.31-20.17 103.89-21.42 104.48-22.68 105.48-23.58 106.48-24.49 107.81-24.99 109.14-25.49 110.66-25.49L110.66-25.49 112.41-25.49Q113.93-25.49 115.27-24.91 116.61-24.34 117.61-23.34 118.62-22.34 119.19-21 119.76-19.65 119.76-18.14L119.76-18.14 119.76-18.04 116.76-17.55 116.76-18.31Q116.76-19.21 116.42-20.01 116.08-20.8 115.49-21.39 114.9-21.97 114.11-22.31 113.32-22.66 112.41-22.66L112.41-22.66 110.66-22.66Q109.75-22.66 108.96-22.39 108.17-22.12 107.58-21.62 106.99-21.12 106.65-20.41 106.31-19.7 106.31-18.8L106.31-18.8Q106.31-17.5 106.9-16.69 107.48-15.87 108.45-15.31 109.41-14.75 110.64-14.37 111.88-13.99 113.16-13.59 114.44-13.18 115.67-12.67 116.91-12.16 117.87-11.35 118.84-10.55 119.42-9.34 120.01-8.13 120.01-6.35ZM137.61 0L134.87 0Q133.51 0 132.3-0.51 131.09-1.03 130.2-1.93 129.31-2.83 128.78-4.03 128.26-5.22 128.26-6.59L128.26-6.59 128.26-22.14 123.76-22.14 123.76-25 128.26-25 128.26-31.01 131.26-31.49 131.26-25 137.61-25 137.61-22.14 131.26-22.14 131.26-6.45Q131.26-5.69 131.54-5.04 131.82-4.39 132.31-3.91 132.8-3.42 133.46-3.14 134.12-2.86 134.87-2.86L134.87-2.86 137.61-2.86 137.61 0ZM159.82 0L158.82 0 157.16-2.49Q156.13-1.15 154.6-0.33 153.06 0.49 151.23 0.49L151.23 0.49 150.47 0.49Q148.96 0.49 147.61-0.09 146.27-0.66 145.27-1.66 144.27-2.66 143.7-4 143.12-5.35 143.12-6.86L143.12-6.86 143.12-7.1Q143.12-8.62 143.7-9.96 144.27-11.3 145.27-12.3 146.27-13.31 147.61-13.88 148.96-14.45 150.47-14.45L150.47-14.45 156.82-14.45 156.82-18.31Q156.82-19.21 156.48-20.01 156.13-20.8 155.55-21.39 154.96-21.97 154.17-22.31 153.38-22.66 152.47-22.66L152.47-22.66 150.71-22.66Q149.81-22.66 149.02-22.31 148.22-21.97 147.64-21.39 147.05-20.8 146.71-20.01 146.37-19.21 146.37-18.31L146.37-18.31 146.37-17.41 143.37-17.9 143.37-18.14Q143.37-19.65 143.94-21 144.51-22.34 145.51-23.34 146.52-24.34 147.86-24.91 149.2-25.49 150.71-25.49L150.71-25.49 152.47-25.49Q153.99-25.49 155.33-24.91 156.67-24.34 157.67-23.34 158.67-22.34 159.25-21 159.82-19.65 159.82-18.14L159.82-18.14 159.82 0ZM156.82-6.69L156.82-12.11 150.47-12.11Q149.57-12.11 148.77-11.77 147.98-11.43 147.39-10.83 146.81-10.23 146.47-9.44 146.13-8.64 146.13-7.74L146.13-7.74 146.13-6.69Q146.13-5.79 146.47-4.99 146.81-4.2 147.39-3.61 147.98-3.03 148.77-2.69 149.57-2.34 150.47-2.34L150.47-2.34 152.47-2.34Q153.38-2.34 154.17-2.69 154.96-3.03 155.55-3.61 156.13-4.2 156.48-4.99 156.82-5.79 156.82-6.69L156.82-6.69ZM170.07-31.01L166.58-31.01 166.58-35.01 170.07-35.01 170.07-31.01ZM169.83 0L166.83 0 166.83-25 169.83-25 169.83 0Z" opacity="1" transform="matrix(1,0,0,1,0,0)" fill="black" class="wordmark-text-0" id="SvgjsPath1802"></path></svg></g></svg></g></svg></g></svg></g><g transform="matrix(1,0,0,1,138.6487051070236,0)"><svg viewBox="0 0 118.22258978595276 116.12638260666277" height="116.12638260666277" width="118.22258978595276"><g><svg xmlns="http://www.w3.org/2000/svg" xmlns:xlink="http://www.w3.org/1999/xlink" version="1.1" x="8" y="0" viewBox="12.268000000000006 7.138 75.46292029316668 85.72699999999998" enable-background="new 0 0 100 100" xml:space="preserve" height="116.12638260666277" width="102.22258978595276" class="icon-icon-0" data-fill-palette-color="accent" id="SvgjsSvg1801"><path fill-rule="evenodd" clip-rule="evenodd" d="M62.88 7.138c0 0.974 0.032 1.752 0.032 2.726-1.062 1.358-3.549 1.696-4.94 2.731-0.99 0.737-1.242 1.708-2.062 2.57-1.45 1.524-2.439 1.621-3.026 0.868 0.049 3.981 7.481 5.144 10.611 7.928 3.866 3.438 2.938 9.481 5.461 10.158 2.39 0.641 7.309-7.152 7.297 0.367-0.758 0.703-1.223 1.187-1.98 1.891-0.329-2.627-1.121 0.426-3.246 1.948 1.941-0.757 3.297-1.26 5.238-2.017 0.997-0.389 1.749-0.378 2.58 0.305 2.945 2.422 5.648 4.779 8.58 7.195 0.347 0.286 0.319 0.674 0.29 1.126l-0.266 4.128c-0.127 1.964-2.263 2.365-3.436 2.41 0.054-0.866 0.108-1.732 0.162-2.597 0.484 0 0.967 0 1.451 0 0.432 0 0.337-0.042 0.35-0.467 0.031-0.954 0.063-1.908 0.094-2.862 0.004-0.136 0.079-0.576-0.023-0.665-4.842-4.197-5.589-4.07-8.169-5.553-0.408-0.235-0.779 0.245-0.802 0.361-0.135 0.683-0.057 1.454-0.11 2.153-0.132 1.71 0.005 3.688-0.243 5.308-0.309 2.018-1.216 3.116-3.988 3.185l0.24-2.435 1.83 0.02c0.07 0.001 0.126-0.048 0.177-0.077 0.272-0.153 0.215-0.389 0.211-0.654l-0.108-6.268c-0.999 1.32-6.534 8.574-8.602 8.251-0.859-0.134-1.669-2.141-2.273-3.382 0.033 0.461 0.066 0.923 0.099 1.385 0.052 0.736 0.013 1.14-0.542 1.71-5.66 5.813-8.094 5.956-10.594 6.97-0.351 2.687-0.28 5.029 0.401 6.86 0.594 1.597 2.103 2.586 3.298 3.512 0.41 0.318 0.486 1.069 0.458 1.219-0.052 0.28-0.244 0.306-0.558 0.355-1.232 0.191-4.136-1.161-6.015-2.17-0.879-0.473-1.569-0.868-1.402-2.317 0.065-0.567 0.197-0.969 0.232-1.408 0.257-3.22-0.325-3.388-0.796-4.752-1.249 0.327-2.176 0.489-2.743 0.524-0.433-0.812-0.792-1.66-1.152-2.471 0.712 8.047-2.343 9.179-6.893 11.93-6.335 3.83-8.056 4.652-7.708 14.742 0.136 3.949 0.775 7.893-2.929 10.986-1.014-1.39-1.006-2.938-0.445-4.411 0.047-0.125 0.04-0.3 0.154-0.372 1.174-0.743 1.952-1.924 1.993-3.439 0.04-1.476-1.767-2.741-1.423-4.953 0.629-4.055 2.612-4.373 0.309-9.09 10.175-4.943 1.595-10.324 2.082-15.194-2.016 2.744-3.48 3.089-5.72 1.803-2.415-1.386-3.013 0.66-2.826 2.235 0.144 1.208-0.654 2-1.752 2.521-1.743 0.823-3.214-1.473-4.363-2.334 1.926-0.421 3.004 0.749 5.868-3.5 1.392-2.065 2.732-3.538 5.182-1.999 2.487 1.563 3.02-0.53 4.39-4.538 0.795-2.326 3.41-4.349 5.889-4.541 4.117-0.319 4.41-0.68 6.406-1.852-2.457-2.705-3.648-5.74-3.571-8.445-0.93-0.063-3.29-0.325-3.667 0.761-0.751 2.165-2.767 6.014-5.972 7.391-0.955 0.411 0.048 2.514-1.134 2.587-0.59 0.037-0.617-0.625-0.956-0.383-0.778 0.556-1.126 2.008-2.115 1.75-1.978-0.517-0.227-4.87-0.902-4.919-1.275-0.093-3.096 3.749-4.052 3.438-1.454-0.472-1.155-1.724-1.866-2.793-0.712-1.069-1.675-1.749-1.033-3.092 0.122-0.254 0.434-0.31 0.678-0.549 0.407-0.399 0.886-0.923 1.889-0.884 2.936 0.114 2.486-1.851 3.155-2.385-6.927 2.391-8.231 0.448-8.66-0.408-0.283-0.566 0.787-3.094 1.982-4.492 0.701-0.82 1.492-0.741 2.524 0.294 1.457 1.461 4.347-0.296 5.683-3.761-0.406-0.318-1.718 0.141-1.963-0.347l-0.341-0.68 0.59-0.16-0.151-0.653c0.534-0.05 0.56-0.096 0.952 0.259 0.073 0.066 0.21 0.311 0.291 0.367 0.241 0.166 0.444 0.066 0.569-0.104-0.936-0.866-1.036-1.347-0.994-2.212-0.779-0.191-1.588 0.806-2.103 1.281 0.016-0.319 0.097-0.842 0.114-1.161-0.188-0.101-0.319-0.096-0.581-0.139 0.213-0.416 0.673-0.957 1.094-1.15 0.413-0.19 1.018-0.248 1.443-0.182 0.148-0.187 0.215-0.148 0.281-0.438 0.917-4.008 3.524-4.614 6.607-3.792-0.12-1.777-2.835-3.17-5.127-3.539-2.435 2.218-4.901 4.246-7.336 6.464 0.274 0.541 0.468 1.082 0.487 1.623 0.379 0.216 0.758 0.433 1.136 0.649-0.433 0.108-0.866 0.216-1.299 0.325-0.118 1.275-0.819 1.851-1.786 2.11 0 0.433 0 0.866 0 1.299-0.433-0.487-0.834-0.879-1.267-1.366-0.572 0.032-0.868-0.127-1.27-0.254l-1.384 0.515 0.604-1.369c-0.328-0.675-0.6-1.565-0.579-2.234-0.27-0.325-0.541-0.649-0.812-0.974 0.487 0 0.974 0 1.461 0 0.247-0.457 0.636-0.771 1.136-0.974 0.054-0.487 0.108-0.974 0.162-1.461 0.325 0.379 0.649 0.757 0.974 1.136 0.595-0.094 1.191-0.083 1.786 0.162 2.002-2.272 4.004-4.545 6.006-6.817-1.08-0.816-0.359-1.76 0.508-2.271 1.157-0.684 1.969-1.363 2.436-1.544 0.87-0.337 2.061-0.677 1.925 1.705 1.477 0.913 2.931 2.082 4.482 2.823 2.249 1.075 3.247 2.562 3.539 5.551 1.483 0.774 2.909 1.528 4.64 2.177 0.364-0.88 0.758-1.7 1.037-2.664-0.413-0.405-0.697-0.909-0.43-1.261 0.644-0.852 1.855-1.576 2.802-3.379-0.46-0.382-0.616-0.879-0.287-1.231 0.715-0.763 2.11-1.999 3.047-2.989-0.433-0.595-0.802-1.095-1.235-1.69 1.868 0.385 2.631 0.558 4.644-0.431C53.51 7.001 53.38 9.059 62.88 7.138L62.88 7.138zM43.553 64.652c0.08 2.738-1.894 5.61-4.941 5.899-2.657 0.252-4.805 1.766-6.402 3.326 2.103-5.968 4.547-3.874 8.358-5.879C41.781 67.36 42.968 66.132 43.553 64.652L43.553 64.652zM27.768 74.493c0.553 6.982-3.614 4.401-3.89 10.717-0.064 1.474-1.615 1.858-2.944 1.925 0-1.003 0-2.005 0-3.007 0.615 0 1.23 0 1.845 0 0.826-0.614 0.192-2.353 0.154-3.464-0.042-1.24 0.297-2.014 1.737-2.615C25.823 77.568 27.007 77.288 27.768 74.493L27.768 74.493zM24.83 59.596c-0.59 0.691-1.62 2.907-3.21 2.581-2.445-0.502-3.679 0.374-3.059 2.812 0.918 3.606-1.935 4.272-2.949 4.717-1.468 0.644-1.659 3.632 1.838 2.191-0.882-2.556 1.942-2.245 3.001-3.068 1.142-0.888 0.692-3.07 0.259-4.181-0.896-2.3 4.543-0.841 5.369-2.397C26.549 61.362 25.873 60.75 24.83 59.596L24.83 59.596zM15.673 64.447c-0.507 0.538-0.99 1.076-1.315 1.614-0.051 0.085-0.467 0.222-0.188 0.231-2.187 0.501-2.209-1.162 0.547-2.938C15.035 63.719 15.354 64.083 15.673 64.447L15.673 64.447z" fill="black"></path></svg></g></svg></g><g><rect width="138.6487051070236" height="7.577711306726266" y="107.5486712999365" x="256.8712948929764" fill="black"></rect><rect width="138.6487051070236" height="7.577711306726266" y="107.5486712999365" x="0" fill="black"></rect><rect width="138.6487051070236" height="7.577711306726266" y="92.39324868648397" x="256.8712948929764" fill="black"></rect><rect width="138.6487051070236" height="7.577711306726266" y="92.39324868648397" x="0" fill="black"></rect></g></svg></g><defs><mask></mask></defs></svg><rect width="395.52" height="219.9910964322151" fill="black" stroke="none" visibility="hidden"></rect></g></mask></svg><rect width="395.52" height="219.9910964322151" fill="black" stroke="none" visibility="hidden"></rect></g></mask><linearGradient x1="0" x2="1" y1="0.578" y2="0.595" id="f7503e86-3374-40a3-b3d8-0caf9bbdc1bb"><stop stop-color="#6ee2f5" offset="0"></stop><stop stop-color="#6454f0" offset="1"></stop></linearGradient><rect width="395.52" height="219.9910964322151" fill="#ffffff" mask="url(#b4e7ecf7-3cb6-452b-9910-a986c7e9be36)" data-fill-palette-color="accent"></rect></svg><rect width="395.52" height="219.9910964322151" fill="none" stroke="none" visibility="hidden"></rect></g></svg></g></svg>